<svg width="169" height="88" viewBox="0 0 169 88" fill="none" xmlns="http://www.w3.org/2000/svg">
<circle cx="44" cy="44" r="44" fill="white"/>
<path d="M28.5 18H37.5V58.25L36.5938 66H28.5V18ZM58.9062 48.75V49.4062C58.9062 51.9271 58.6354 54.2396 58.0938 56.3438C57.5729 58.4479 56.7604 60.2708 55.6562 61.8125C54.5521 63.3333 53.1771 64.5208 51.5312 65.375C49.9062 66.2083 47.9896 66.625 45.7812 66.625C43.7188 66.625 41.9271 66.2083 40.4062 65.375C38.9062 64.5417 37.6458 63.3646 36.625 61.8438C35.6042 60.3229 34.7812 58.5417 34.1562 56.5C33.5312 54.4583 33.0625 52.2292 32.75 49.8125V48.375C33.0625 45.9583 33.5312 43.7292 34.1562 41.6875C34.7812 39.6458 35.6042 37.8646 36.625 36.3438C37.6458 34.8229 38.9062 33.6458 40.4062 32.8125C41.9062 31.9792 43.6771 31.5625 45.7188 31.5625C47.9479 31.5625 49.8854 31.9896 51.5312 32.8438C53.1979 33.6771 54.5729 34.8646 55.6562 36.4062C56.7604 37.9271 57.5729 39.7396 58.0938 41.8438C58.6354 43.9271 58.9062 46.2292 58.9062 48.75ZM49.9062 49.4062V48.75C49.9062 47.375 49.8021 46.0833 49.5938 44.875C49.4062 43.6458 49.0729 42.5729 48.5938 41.6562C48.1146 40.7188 47.4583 39.9792 46.625 39.4375C45.8125 38.8958 44.7604 38.625 43.4688 38.625C42.2396 38.625 41.1979 38.8333 40.3438 39.25C39.4896 39.6667 38.7812 40.25 38.2188 41C37.6771 41.75 37.2708 42.6458 37 43.6875C36.7292 44.7083 36.5625 45.8333 36.5 47.0625V51.1562C36.5625 52.8021 36.8333 54.2604 37.3125 55.5312C37.8125 56.7812 38.5625 57.7708 39.5625 58.5C40.5833 59.2083 41.9062 59.5625 43.5312 59.5625C44.8021 59.5625 45.8542 59.3125 46.6875 58.8125C47.5208 58.3125 48.1667 57.6042 48.625 56.6875C49.1042 55.7708 49.4375 54.6979 49.625 53.4688C49.8125 52.2188 49.9062 50.8646 49.9062 49.4062ZM74 18V66H64.9688V18H74ZM80 49.4375V48.7812C80 46.3021 80.3542 44.0208 81.0625 41.9375C81.7708 39.8333 82.8021 38.0104 84.1562 36.4688C85.5104 34.9271 87.1771 33.7292 89.1562 32.875C91.1354 32 93.4062 31.5625 95.9688 31.5625C98.5312 31.5625 100.812 32 102.812 32.875C104.812 33.7292 106.49 34.9271 107.844 36.4688C109.219 38.0104 110.26 39.8333 110.969 41.9375C111.677 44.0208 112.031 46.3021 112.031 48.7812V49.4375C112.031 51.8958 111.677 54.1771 110.969 56.2812C110.26 58.3646 109.219 60.1875 107.844 61.75C106.49 63.2917 104.823 64.4896 102.844 65.3438C100.865 66.1979 98.5938 66.625 96.0312 66.625C93.4688 66.625 91.1875 66.1979 89.1875 65.3438C87.2083 64.4896 85.5312 63.2917 84.1562 61.75C82.8021 60.1875 81.7708 58.3646 81.0625 56.2812C80.3542 54.1771 80 51.8958 80 49.4375ZM89 48.7812V49.4375C89 50.8542 89.125 52.1771 89.375 53.4062C89.625 54.6354 90.0208 55.7188 90.5625 56.6562C91.125 57.5729 91.8542 58.2917 92.75 58.8125C93.6458 59.3333 94.7396 59.5938 96.0312 59.5938C97.2812 59.5938 98.3542 59.3333 99.25 58.8125C100.146 58.2917 100.865 57.5729 101.406 56.6562C101.948 55.7188 102.344 54.6354 102.594 53.4062C102.865 52.1771 103 50.8542 103 49.4375V48.7812C103 47.4062 102.865 46.1146 102.594 44.9062C102.344 43.6771 101.938 42.5938 101.375 41.6562C100.833 40.6979 100.115 39.9479 99.2188 39.4062C98.3229 38.8646 97.2396 38.5938 95.9688 38.5938C94.6979 38.5938 93.6146 38.8646 92.7188 39.4062C91.8438 39.9479 91.125 40.6979 90.5625 41.6562C90.0208 42.5938 89.625 43.6771 89.375 44.9062C89.125 46.1146 89 47.4062 89 48.7812ZM138.969 32.1875H147.125V64.875C147.125 67.9583 146.438 70.5729 145.062 72.7188C143.708 74.8854 141.812 76.5208 139.375 77.625C136.938 78.75 134.104 79.3125 130.875 79.3125C129.458 79.3125 127.958 79.125 126.375 78.75C124.812 78.375 123.312 77.7917 121.875 77C120.458 76.2083 119.271 75.2083 118.312 74L122.281 68.6875C123.323 69.8958 124.531 70.8333 125.906 71.5C127.281 72.1875 128.802 72.5312 130.469 72.5312C132.094 72.5312 133.469 72.2292 134.594 71.625C135.719 71.0417 136.583 70.1771 137.188 69.0312C137.792 67.9062 138.094 66.5417 138.094 64.9375V40L138.969 32.1875ZM116.219 49.5V48.8438C116.219 46.2604 116.531 43.9167 117.156 41.8125C117.802 39.6875 118.708 37.8646 119.875 36.3438C121.062 34.8229 122.5 33.6458 124.188 32.8125C125.875 31.9792 127.781 31.5625 129.906 31.5625C132.156 31.5625 134.042 31.9792 135.562 32.8125C137.083 33.6458 138.333 34.8333 139.312 36.375C140.292 37.8958 141.052 39.6979 141.594 41.7812C142.156 43.8438 142.594 46.1042 142.906 48.5625V50C142.594 52.3542 142.125 54.5417 141.5 56.5625C140.875 58.5833 140.052 60.3542 139.031 61.875C138.01 63.375 136.74 64.5417 135.219 65.375C133.719 66.2083 131.927 66.625 129.844 66.625C127.76 66.625 125.875 66.1979 124.188 65.3438C122.521 64.4896 121.094 63.2917 119.906 61.75C118.719 60.2083 117.802 58.3958 117.156 56.3125C116.531 54.2292 116.219 51.9583 116.219 49.5ZM125.219 48.8438V49.5C125.219 50.8958 125.354 52.1979 125.625 53.4062C125.896 54.6146 126.312 55.6875 126.875 56.625C127.458 57.5417 128.177 58.2604 129.031 58.7812C129.906 59.2812 130.938 59.5312 132.125 59.5312C133.771 59.5312 135.115 59.1875 136.156 58.5C137.198 57.7917 137.979 56.8229 138.5 55.5938C139.021 54.3646 139.323 52.9479 139.406 51.3438V47.25C139.365 45.9375 139.188 44.7604 138.875 43.7188C138.562 42.6562 138.125 41.75 137.562 41C137 40.25 136.271 39.6667 135.375 39.25C134.479 38.8333 133.417 38.625 132.188 38.625C131 38.625 129.969 38.8958 129.094 39.4375C128.24 39.9583 127.521 40.6771 126.938 41.5938C126.375 42.5104 125.948 43.5938 125.656 44.8438C125.365 46.0729 125.219 47.4062 125.219 48.8438Z" fill="white"/>
<mask id="mask0_19_97" style="mask-type:alpha" maskUnits="userSpaceOnUse" x="0" y="0" width="88" height="88">
<circle cx="44" cy="44" r="44" fill="black"/>
</mask>
<g mask="url(#mask0_19_97)">
<path d="M28.5 18H37.5V58.25L36.5938 66H28.5V18ZM58.9062 48.75V49.4062C58.9062 51.9271 58.6354 54.2396 58.0938 56.3438C57.5729 58.4479 56.7604 60.2708 55.6562 61.8125C54.5521 63.3333 53.1771 64.5208 51.5312 65.375C49.9062 66.2083 47.9896 66.625 45.7812 66.625C43.7188 66.625 41.9271 66.2083 40.4062 65.375C38.9062 64.5417 37.6458 63.3646 36.625 61.8438C35.6042 60.3229 34.7812 58.5417 34.1562 56.5C33.5312 54.4583 33.0625 52.2292 32.75 49.8125V48.375C33.0625 45.9583 33.5312 43.7292 34.1562 41.6875C34.7812 39.6458 35.6042 37.8646 36.625 36.3438C37.6458 34.8229 38.9062 33.6458 40.4062 32.8125C41.9062 31.9792 43.6771 31.5625 45.7188 31.5625C47.9479 31.5625 49.8854 31.9896 51.5312 32.8438C53.1979 33.6771 54.5729 34.8646 55.6562 36.4062C56.7604 37.9271 57.5729 39.7396 58.0938 41.8438C58.6354 43.9271 58.9062 46.2292 58.9062 48.75ZM49.9062 49.4062V48.75C49.9062 47.375 49.8021 46.0833 49.5938 44.875C49.4062 43.6458 49.0729 42.5729 48.5938 41.6562C48.1146 40.7188 47.4583 39.9792 46.625 39.4375C45.8125 38.8958 44.7604 38.625 43.4688 38.625C42.2396 38.625 41.1979 38.8333 40.3438 39.25C39.4896 39.6667 38.7812 40.25 38.2188 41C37.6771 41.75 37.2708 42.6458 37 43.6875C36.7292 44.7083 36.5625 45.8333 36.5 47.0625V51.1562C36.5625 52.8021 36.8333 54.2604 37.3125 55.5312C37.8125 56.7812 38.5625 57.7708 39.5625 58.5C40.5833 59.2083 41.9062 59.5625 43.5312 59.5625C44.8021 59.5625 45.8542 59.3125 46.6875 58.8125C47.5208 58.3125 48.1667 57.6042 48.625 56.6875C49.1042 55.7708 49.4375 54.6979 49.625 53.4688C49.8125 52.2188 49.9062 50.8646 49.9062 49.4062ZM74 18V66H64.9688V18H74ZM80 49.4375V48.7812C80 46.3021 80.3542 44.0208 81.0625 41.9375C81.7708 39.8333 82.8021 38.0104 84.1562 36.4688C85.5104 34.9271 87.1771 33.7292 89.1562 32.875C91.1354 32 93.4062 31.5625 95.9688 31.5625C98.5312 31.5625 100.812 32 102.812 32.875C104.812 33.7292 106.49 34.9271 107.844 36.4688C109.219 38.0104 110.26 39.8333 110.969 41.9375C111.677 44.0208 112.031 46.3021 112.031 48.7812V49.4375C112.031 51.8958 111.677 54.1771 110.969 56.2812C110.26 58.3646 109.219 60.1875 107.844 61.75C106.49 63.2917 104.823 64.4896 102.844 65.3438C100.865 66.1979 98.5938 66.625 96.0312 66.625C93.4688 66.625 91.1875 66.1979 89.1875 65.3438C87.2083 64.4896 85.5312 63.2917 84.1562 61.75C82.8021 60.1875 81.7708 58.3646 81.0625 56.2812C80.3542 54.1771 80 51.8958 80 49.4375ZM89 48.7812V49.4375C89 50.8542 89.125 52.1771 89.375 53.4062C89.625 54.6354 90.0208 55.7188 90.5625 56.6562C91.125 57.5729 91.8542 58.2917 92.75 58.8125C93.6458 59.3333 94.7396 59.5938 96.0312 59.5938C97.2812 59.5938 98.3542 59.3333 99.25 58.8125C100.146 58.2917 100.865 57.5729 101.406 56.6562C101.948 55.7188 102.344 54.6354 102.594 53.4062C102.865 52.1771 103 50.8542 103 49.4375V48.7812C103 47.4062 102.865 46.1146 102.594 44.9062C102.344 43.6771 101.938 42.5938 101.375 41.6562C100.833 40.6979 100.115 39.9479 99.2188 39.4062C98.3229 38.8646 97.2396 38.5938 95.9688 38.5938C94.6979 38.5938 93.6146 38.8646 92.7188 39.4062C91.8438 39.9479 91.125 40.6979 90.5625 41.6562C90.0208 42.5938 89.625 43.6771 89.375 44.9062C89.125 46.1146 89 47.4062 89 48.7812ZM138.969 32.1875H147.125V64.875C147.125 67.9583 146.438 70.5729 145.062 72.7188C143.708 74.8854 141.812 76.5208 139.375 77.625C136.938 78.75 134.104 79.3125 130.875 79.3125C129.458 79.3125 127.958 79.125 126.375 78.75C124.812 78.375 123.312 77.7917 121.875 77C120.458 76.2083 119.271 75.2083 118.312 74L122.281 68.6875C123.323 69.8958 124.531 70.8333 125.906 71.5C127.281 72.1875 128.802 72.5312 130.469 72.5312C132.094 72.5312 133.469 72.2292 134.594 71.625C135.719 71.0417 136.583 70.1771 137.188 69.0312C137.792 67.9062 138.094 66.5417 138.094 64.9375V40L138.969 32.1875ZM116.219 49.5V48.8438C116.219 46.2604 116.531 43.9167 117.156 41.8125C117.802 39.6875 118.708 37.8646 119.875 36.3438C121.062 34.8229 122.5 33.6458 124.188 32.8125C125.875 31.9792 127.781 31.5625 129.906 31.5625C132.156 31.5625 134.042 31.9792 135.562 32.8125C137.083 33.6458 138.333 34.8333 139.312 36.375C140.292 37.8958 141.052 39.6979 141.594 41.7812C142.156 43.8438 142.594 46.1042 142.906 48.5625V50C142.594 52.3542 142.125 54.5417 141.5 56.5625C140.875 58.5833 140.052 60.3542 139.031 61.875C138.01 63.375 136.74 64.5417 135.219 65.375C133.719 66.2083 131.927 66.625 129.844 66.625C127.76 66.625 125.875 66.1979 124.188 65.3438C122.521 64.4896 121.094 63.2917 119.906 61.75C118.719 60.2083 117.802 58.3958 117.156 56.3125C116.531 54.2292 116.219 51.9583 116.219 49.5ZM125.219 48.8438V49.5C125.219 50.8958 125.354 52.1979 125.625 53.4062C125.896 54.6146 126.312 55.6875 126.875 56.625C127.458 57.5417 128.177 58.2604 129.031 58.7812C129.906 59.2812 130.938 59.5312 132.125 59.5312C133.771 59.5312 135.115 59.1875 136.156 58.5C137.198 57.7917 137.979 56.8229 138.5 55.5938C139.021 54.3646 139.323 52.9479 139.406 51.3438V47.25C139.365 45.9375 139.188 44.7604 138.875 43.7188C138.562 42.6562 138.125 41.75 137.562 41C137 40.25 136.271 39.6667 135.375 39.25C134.479 38.8333 133.417 38.625 132.188 38.625C131 38.625 129.969 38.8958 129.094 39.4375C128.24 39.9583 127.521 40.6771 126.938 41.5938C126.375 42.5104 125.948 43.5938 125.656 44.8438C125.365 46.0729 125.219 47.4062 125.219 48.8438Z" fill="black"/>
</g>
</svg>
