<svg width="80" height="80" viewBox="0 0 80 80" fill="none" xmlns="http://www.w3.org/2000/svg">
<circle cx="40" cy="40" r="40" fill="#C4C4C4"/>
<path d="M40 38C37.25 38 34.8958 37.0208 32.9375 35.0625C30.9792 33.1042 30 30.75 30 28C30 25.25 30.9792 22.8958 32.9375 20.9375C34.8958 18.9792 37.25 18 40 18C42.75 18 45.1042 18.9792 47.0625 20.9375C49.0208 22.8958 50 25.25 50 28C50 30.75 49.0208 33.1042 47.0625 35.0625C45.1042 37.0208 42.75 38 40 38ZM20 58V51C20 49.5833 20.3646 48.2812 21.0938 47.0938C21.8229 45.9062 22.7917 45 24 44.375C26.5833 43.0833 29.2083 42.1146 31.875 41.4688C34.5417 40.8229 37.25 40.5 40 40.5C42.75 40.5 45.4583 40.8229 48.125 41.4688C50.7917 42.1146 53.4167 43.0833 56 44.375C57.2083 45 58.1771 45.9062 58.9062 47.0938C59.6354 48.2812 60 49.5833 60 51V58H20ZM25 53H55V51C55 50.5417 54.8854 50.125 54.6562 49.75C54.4271 49.375 54.125 49.0833 53.75 48.875C51.5 47.75 49.2292 46.9063 46.9375 46.3438C44.6458 45.7813 42.3333 45.5 40 45.5C37.6667 45.5 35.3542 45.7813 33.0625 46.3438C30.7708 46.9063 28.5 47.75 26.25 48.875C25.875 49.0833 25.5729 49.375 25.3438 49.75C25.1146 50.125 25 50.5417 25 51V53ZM40 33C41.375 33 42.5521 32.5104 43.5312 31.5312C44.5104 30.5521 45 29.375 45 28C45 26.625 44.5104 25.4479 43.5312 24.4688C42.5521 23.4896 41.375 23 40 23C38.625 23 37.4479 23.4896 36.4688 24.4688C35.4896 25.4479 35 26.625 35 28C35 29.375 35.4896 30.5521 36.4688 31.5312C37.4479 32.5104 38.625 33 40 33Z" fill="#1D1B20"/>
</svg>
